<?xml version="1.0" encoding="utf-8"?>
<!-- Generator: Adobe Illustrator 18.0.0, SVG Export Plug-In . SVG Version: 6.00 Build 0)  -->
<!DOCTYPE svg PUBLIC "-//W3C//DTD SVG 1.0//EN" "http://www.w3.org/TR/2001/REC-SVG-20010904/DTD/svg10.dtd">
<svg version="1.0" xmlns="http://www.w3.org/2000/svg" xmlns:xlink="http://www.w3.org/1999/xlink" x="0px" y="0px"
	 viewBox="0 0 28.3500004 28.3500004" enable-background="new 0 0 28.3500004 28.3500004" xml:space="preserve">
<g id="Layer_1" display="none">
	<path display="inline" d="M0,0v28.3499756h28.3499756V0H0z M22.1494751,18.0738525l-7.4937134,4.3264771l-7.4936523-4.3264771
		V9.4208984l7.4936523-4.3264771l7.4937134,4.3264771V18.0738525z"/>
	<polygon display="inline" points="7.1621094,9.4208984 7.1621094,18.0738525 14.6557617,22.4003296 22.1494751,18.0738525 
		22.1494751,9.4208984 14.6557617,5.0944214 	"/>
</g>
<g id="Layer_5" display="none">
	<linearGradient id="SVGID_1_" gradientUnits="userSpaceOnUse" x1="-2.2699974" y1="24.8544865" x2="30.6199722" y2="3.4954896">
		<stop  offset="0" style="stop-color:#171F2C"/>
		<stop  offset="1" style="stop-color:#3D4C62"/>
	</linearGradient>
	<rect display="inline" fill="url(#SVGID_1_)" width="28.3499756" height="28.3499756"/>
</g>
<g id="Layer_2">
	<linearGradient id="SVGID_2_" gradientUnits="userSpaceOnUse" x1="4.862915" y1="6.3348083" x2="14.6557617" y2="6.3348083">
		<stop  offset="0" style="stop-color:#FFFFFF;stop-opacity:0.2"/>
		<stop  offset="1" style="stop-color:#FFFFFF;stop-opacity:0.2"/>
	</linearGradient>
	<polygon fill="url(#SVGID_2_)" points="14.6557617,5.5220947 14.6557617,2.8364868 4.862915,8.4902954 7.1887817,9.8331299 	"/>
	<linearGradient id="SVGID_3_" gradientUnits="userSpaceOnUse" x1="4.8363037" y1="14.151886" x2="7.1887817" y2="14.151886">
		<stop  offset="0" style="stop-color:#FFFFFF;stop-opacity:0.2"/>
		<stop  offset="1" style="stop-color:#FFFFFF;stop-opacity:0.2"/>
	</linearGradient>
	<polygon fill="url(#SVGID_3_)" points="7.1621704,9.8485107 7.1887817,9.8331299 4.862915,8.4902954 4.8363037,8.5056763 
		4.8363037,19.8134766 7.1621704,18.4706421 	"/>
	<linearGradient id="SVGID_4_" gradientUnits="userSpaceOnUse" x1="14.6557617" y1="21.9920654" x2="4.8363037" y2="21.9920654">
		<stop  offset="0" style="stop-color:#FFFFFF;stop-opacity:0.5"/>
		<stop  offset="0.0896271" style="stop-color:#FFFFFF;stop-opacity:0.4731119"/>
		<stop  offset="1" style="stop-color:#FFFFFF;stop-opacity:0.2"/>
	</linearGradient>
	<polygon fill="url(#SVGID_4_)" points="7.1621704,18.4706421 4.8363037,19.8134766 4.8363037,19.8442993 14.6557617,25.5134888 
		14.6557617,22.8278809 7.1621704,18.5014648 	"/>
	<linearGradient id="SVGID_5_" gradientUnits="userSpaceOnUse" x1="23.8671894" y1="9.497447" x2="14.0743389" y2="3.8435414">
		<stop  offset="0" style="stop-color:#FFFFFF;stop-opacity:0.5"/>
		<stop  offset="0.0896271" style="stop-color:#FFFFFF;stop-opacity:0.4731119"/>
		<stop  offset="1" style="stop-color:#FFFFFF;stop-opacity:0.2"/>
	</linearGradient>
	<polygon fill="url(#SVGID_5_)" points="14.6558228,2.8364258 14.6557617,2.8364868 14.6557617,5.5220947 14.6558228,5.5220337 
		22.1228027,9.8330688 24.4486694,8.4902954 	"/>
	<linearGradient id="SVGID_6_" gradientUnits="userSpaceOnUse" x1="23.2990723" y1="8.4902954" x2="23.2990723" y2="19.8135376">
		<stop  offset="0" style="stop-color:#FFFFFF;stop-opacity:0.3"/>
		<stop  offset="1" style="stop-color:#FFFFFF;stop-opacity:0.2"/>
	</linearGradient>
	<polygon fill="url(#SVGID_6_)" points="22.1228027,9.8330688 22.1495361,9.8485107 22.1495361,18.4707031 24.4753418,19.8135376 
		24.4753418,8.5056763 24.4486694,8.4902954 	"/>
	<linearGradient id="SVGID_7_" gradientUnits="userSpaceOnUse" x1="16.5292263" y1="26.5951595" x2="21.4522972" y2="18.0681515">
		<stop  offset="0" style="stop-color:#FFFFFF;stop-opacity:0.3"/>
		<stop  offset="1" style="stop-color:#FFFFFF;stop-opacity:0.2"/>
	</linearGradient>
	<polygon fill="url(#SVGID_7_)" points="22.1495361,18.5014648 14.6558228,22.8279419 14.6557617,22.8278809 14.6557617,25.5134888 
		14.6558228,25.5135498 24.4753418,19.8442993 24.4753418,19.8135376 22.1495361,18.4707031 	"/>
</g>
<g id="Layer_3">
	<linearGradient id="SVGID_8_" gradientUnits="userSpaceOnUse" x1="14.6624365" y1="20.9172287" x2="8.8201485" y2="10.798089">
		<stop  offset="0" style="stop-color:#FFFFFF;stop-opacity:0.3"/>
		<stop  offset="1" style="stop-color:#FFFFFF;stop-opacity:0.5"/>
	</linearGradient>
	<path fill="url(#SVGID_8_)" d="M14.6557617,14.144165v6.7769165l-5.8422852-3.3730469v-0.0308228L14.6557617,14.144165z
		 M14.6557617,14.144165l-5.8156128-3.357605l-0.0266724,0.0153809v6.715271L14.6557617,14.144165L14.6557617,14.144165z"/>
	<linearGradient id="SVGID_9_" gradientUnits="userSpaceOnUse" x1="19.0174751" y1="13.3047867" x2="10.2940569" y2="8.2683182">
		<stop  offset="0" style="stop-color:#FFFFFF;stop-opacity:0.2"/>
		<stop  offset="1" style="stop-color:#FFFFFF;stop-opacity:0.4"/>
	</linearGradient>
	<path fill="url(#SVGID_9_)" d="M14.6557617,14.144165l-5.8156128-3.357605l5.8156128-3.357666V14.144165z M14.6557617,7.428894
		v6.715271l0,0l5.8156128-3.357605L14.6557617,7.428894z"/>
	<linearGradient id="SVGID_10_" gradientUnits="userSpaceOnUse" x1="20.4980469" y1="15.8538208" x2="14.6557617" y2="15.8538208">
		<stop  offset="0" style="stop-color:#FFFFFF;stop-opacity:0.2"/>
		<stop  offset="1" style="stop-color:#FFFFFF;stop-opacity:0.3"/>
	</linearGradient>
	<path fill="url(#SVGID_10_)" d="M20.4713745,10.7865601l0.0266724,0.0153809v6.715271l-5.8422852-3.3730469L20.4713745,10.7865601z
		 M14.6557617,14.144165v6.7769165l5.8422852-3.3730469v-0.0308228L14.6557617,14.144165L14.6557617,14.144165z"/>
	<polygon fill="#FFFFFF" points="14.6557617,14.144165 14.6557617,14.144165 14.6557617,14.144165 	"/>
</g>
<g id="Layer_4">
</g>
</svg>
